<?xml version="1.0" standalone="no"?>
<!DOCTYPE svg PUBLIC "-//W3C//DTD SVG 20010904//EN"
 "http://www.w3.org/TR/2001/REC-SVG-20010904/DTD/svg10.dtd">
<svg version="1.0" xmlns="http://www.w3.org/2000/svg"
 width="700.000000pt" height="450.000000pt" viewBox="0 0 700.000000 450.000000"
 preserveAspectRatio="xMidYMid meet">
<metadata>
Created by potrace 1.16, written by Peter Selinger 2001-2019
</metadata>
<g transform="translate(0.000000,450.000000) scale(0.100000,-0.100000)"
fill="#000000" stroke="none">
<path d="M0 4390 c0 -119 15 -187 42 -196 12 -3 18 -16 18 -36 0 -23 -4 -29
-15 -24 -10 3 -15 -1 -15 -13 0 -11 5 -21 11 -23 18 -6 0 -66 -22 -73 -18 -6
-19 -20 -19 -412 l0 -405 61 -60 c71 -69 165 -133 218 -148 52 -14 128 -12
160 4 46 25 92 85 138 186 111 239 150 298 251 382 112 93 135 109 227 164 68
41 173 156 192 210 7 20 23 44 37 55 13 10 26 27 29 38 4 17 1 18 -27 10 -72
-22 -183 -42 -226 -41 -76 2 -157 41 -240 117 -25 22 -71 51 -102 64 -53 21
-57 25 -60 59 -3 35 -5 37 -43 42 -32 4 -41 10 -43 27 -4 24 -50 63 -76 63 -9
0 -16 5 -16 10 0 6 -9 10 -20 10 -11 0 -24 8 -27 18 -7 20 -45 57 -73 72 -10
6 -93 10 -189 10 l-171 0 0 -110z m389 -935 c7 -7 -10 -75 -18 -75 -5 0 -11
-9 -14 -20 -3 -11 -12 -20 -21 -20 -9 0 -16 -8 -16 -18 0 -34 -104 -61 -147
-38 -15 8 -22 15 -15 16 6 0 12 6 12 14 0 29 110 142 145 149 20 5 66 -1 74
-8z"/>
<path d="M1384 4478 c-3 -13 -13 -31 -22 -40 -11 -13 -12 -18 -2 -18 15 0 5
-48 -14 -68 -11 -11 -18 -12 -37 -2 -42 23 -157 18 -120 -4 5 -4 12 -23 16
-44 6 -35 10 -39 53 -52 26 -7 59 -26 74 -42 l26 -29 7 23 c4 13 22 41 40 63
17 22 38 51 45 64 7 14 21 34 31 45 21 22 23 32 10 40 -12 8 -1 57 15 63 33
12 9 23 -50 23 -58 0 -65 -2 -72 -22z"/>
<path d="M2303 4413 c3 -49 12 -146 21 -218 9 -71 16 -175 16 -231 0 -60 6
-121 15 -150 8 -27 15 -71 15 -98 0 -44 13 -112 55 -293 8 -34 15 -75 15 -91
0 -16 11 -49 24 -74 15 -28 21 -50 16 -59 -14 -21 -2 -29 46 -29 25 0 43 4 39
9 -3 5 -8 31 -11 58 -3 26 -10 53 -15 60 -6 6 -13 36 -16 67 -6 54 -5 54 23
58 23 2 33 12 49 46 17 37 23 42 53 42 19 0 47 -10 65 -24 58 -42 75 -41 128
13 41 42 48 55 55 107 5 32 8 84 6 113 -2 58 16 101 43 101 8 0 15 4 15 8 0 4
21 13 48 20 53 14 112 42 112 54 0 5 6 8 13 8 8 0 22 9 32 20 10 11 42 34 71
51 80 45 89 36 119 -118 4 -18 11 -33 16 -33 13 0 41 -60 35 -75 -7 -18 25
-29 39 -13 26 29 64 140 71 207 3 39 11 74 15 77 5 3 9 14 9 25 0 28 30 37 46
14 21 -28 17 -73 -8 -108 -18 -25 -23 -46 -23 -89 1 -73 15 -90 50 -58 14 13
25 29 25 35 0 6 5 16 11 22 13 13 31 1 42 -27 4 -12 6 -12 6 2 1 9 11 29 24
45 26 31 42 70 51 123 14 77 35 260 41 355 4 55 9 108 11 118 5 16 -6 17 -129
17 l-135 0 -17 -27 c-37 -57 -155 -162 -193 -172 -186 -48 -204 -49 -280 -27
-26 7 -68 18 -94 24 -70 17 -215 101 -267 155 l-46 47 -178 0 -179 0 5 -87z"/>
<path d="M4110 4485 c0 -8 -5 -25 -11 -39 -10 -21 -15 -23 -31 -15 -28 15 -37
2 -45 -59 -4 -40 -1 -63 13 -95 23 -52 34 -60 53 -39 9 10 35 32 59 51 42 33
56 73 32 97 -6 6 -5 17 3 30 7 12 20 35 30 53 l18 31 -61 0 c-46 0 -60 -3 -60
-15z"/>
<path d="M4411 4445 c-55 -73 -57 -80 -27 -100 30 -20 205 -39 239 -26 31 13
127 100 127 116 0 7 7 18 15 25 8 7 15 19 15 26 0 11 -31 14 -164 14 l-164 0
-41 -55z"/>
<path d="M4835 4454 c-11 -25 -29 -56 -41 -67 -20 -21 -59 -108 -54 -123 1 -4
-4 -10 -11 -14 -9 -6 -6 -16 10 -39 12 -17 28 -31 35 -31 11 0 155 197 205
280 l23 40 -73 0 -74 0 -20 -46z"/>
<path d="M6704 4418 c2 -48 0 -88 -6 -95 -13 -16 5 -17 32 -3 30 16 70 -4 70
-36 0 -23 2 -25 17 -13 14 13 15 12 5 -6 -11 -22 -30 -108 -36 -165 -2 -19 -7
-47 -11 -62 -6 -22 -4 -28 9 -28 19 0 36 30 37 67 0 27 0 27 10 5 6 -16 5 -31
-2 -44 -10 -18 -9 -20 5 -15 8 3 18 2 21 -3 3 -4 -12 -14 -32 -20 -21 -7 -41
-15 -45 -19 -11 -10 -30 -126 -33 -208 -3 -61 -8 -78 -35 -117 -40 -59 -63
-74 -147 -95 -37 -10 -90 -32 -117 -49 -28 -18 -62 -32 -76 -32 -59 0 -127
-30 -167 -73 -74 -81 -163 -231 -163 -277 0 -25 41 -6 71 33 65 84 115 130
174 157 39 18 81 49 120 90 61 64 97 85 123 75 8 -3 30 -1 49 6 40 13 63 0 63
-37 0 -34 12 -30 53 15 37 41 62 108 72 193 5 35 13 53 33 68 l26 21 32 -38
c31 -36 31 -38 18 -76 -19 -55 -17 -101 6 -147 16 -30 18 -45 10 -65 -19 -51
-7 -135 20 -135 4 0 11 13 15 29 3 16 13 35 20 41 11 9 15 7 21 -14 9 -36 -3
-77 -20 -70 -42 16 -67 -128 -32 -181 15 -23 16 -33 5 -80 -11 -48 -10 -57 6
-81 17 -27 17 -27 -14 -56 -17 -16 -31 -35 -31 -43 0 -7 -6 -16 -12 -18 -10
-4 -10 -6 0 -6 6 -1 12 -10 12 -22 0 -14 -5 -19 -14 -16 -9 4 -12 -2 -10 -19
2 -23 -9 -80 -23 -114 -4 -8 -7 -18 -8 -22 -2 -5 -4 -10 -5 -13 -1 -3 -4 -9
-5 -15 -1 -5 -3 -11 -5 -12 -1 -2 -3 -20 -4 -42 -2 -21 -9 -42 -17 -47 -11 -7
-11 -9 -1 -9 8 0 10 -5 6 -12 -7 -11 -10 -23 -16 -73 -2 -11 -8 -26 -15 -33
-6 -7 -15 -32 -19 -57 -7 -47 -10 -50 -33 -36 -8 5 -9 11 -3 15 6 3 11 14 11
24 0 9 2 32 6 50 5 28 3 32 -14 32 -12 0 -21 -4 -21 -10 0 -5 7 -10 16 -10 8
0 12 -5 9 -10 -4 -6 -10 -8 -15 -5 -9 6 -42 -81 -41 -111 0 -12 -6 -27 -14
-34 -13 -11 -14 -8 -9 21 4 19 10 39 14 44 7 9 15 49 26 135 3 19 9 61 13 93
7 48 5 57 -8 58 -10 0 -12 2 -3 6 15 6 16 77 1 105 -11 20 -12 20 -25 -10 -8
-20 -20 -32 -31 -31 -16 0 -16 1 2 9 18 8 18 9 -5 9 -20 1 -22 3 -10 12 12 8
9 10 -14 6 -19 -3 -34 1 -47 14 -18 18 -18 19 -1 20 14 0 14 2 -3 8 -11 5 -21
4 -23 0 -5 -13 -42 -11 -42 2 0 5 -4 8 -9 4 -5 -3 -12 -1 -15 4 -4 5 -19 8
-34 6 -15 -2 -31 -4 -37 -4 -5 -1 -3 -6 5 -11 13 -9 13 -10 0 -9 -8 0 -24 4
-35 8 -19 8 -19 8 0 19 28 16 4 15 -35 -2 -27 -11 -29 -14 -14 -20 11 -3 37
-13 59 -21 l40 -15 -35 6 c-19 4 -44 6 -55 6 -16 -1 -17 1 -5 9 11 7 2 9 -30
6 -25 -2 -35 -2 -22 0 12 2 22 11 22 19 0 8 9 14 20 14 11 0 20 5 20 10 0 15
-31 25 -39 13 -3 -6 -22 -14 -41 -17 -26 -5 -31 -4 -20 3 13 9 13 11 -2 11
-10 0 -18 7 -18 15 0 8 -7 15 -15 15 -8 0 -15 8 -15 18 0 12 -2 14 -8 4 -6 -9
-21 -11 -48 -7 -25 4 -55 1 -83 -9 -24 -9 -46 -16 -49 -16 -15 0 36 29 58 33
14 2 4 4 -23 4 -46 0 -85 21 -110 61 -4 6 -15 12 -22 12 -8 0 -15 5 -15 12 0
6 -3 8 -7 5 -3 -4 4 -19 18 -34 13 -14 19 -23 12 -19 -18 10 -23 -8 -14 -42 8
-25 6 -32 -7 -35 -15 -4 -14 -5 1 -6 10 0 15 -6 12 -11 -4 -6 -11 -8 -16 -5
-5 4 -8 -6 -8 -22 1 -17 3 -21 6 -10 8 30 23 18 16 -14 -5 -24 -2 -34 12 -41
16 -9 15 -11 -6 -22 -13 -7 -23 -18 -21 -24 1 -7 -4 -12 -10 -12 -9 0 -8 -4 2
-10 9 -6 10 -10 3 -10 -6 0 -19 -26 -28 -57 -9 -31 -24 -63 -33 -70 -14 -10
-15 -14 -3 -22 9 -6 10 -11 2 -15 -6 -4 -11 -2 -11 4 0 7 -6 10 -13 7 -13 -5
-69 12 -142 42 -80 33 -316 36 -377 5 -72 -36 -86 -47 -132 -104 -28 -33 -53
-60 -58 -60 -4 0 -22 -13 -40 -29 -38 -32 -112 -68 -162 -78 -30 -5 -112 -53
-150 -87 -20 -17 -65 -49 -102 -71 -69 -42 -207 -144 -212 -157 -2 -4 -9 -8
-15 -8 -7 0 -23 -9 -37 -20 -14 -11 -32 -20 -40 -20 -8 0 -20 -10 -25 -22 -14
-33 -78 -64 -132 -66 -53 -2 -61 1 -86 38 -21 30 -22 70 -2 117 l16 37 -26
-24 c-14 -13 -28 -20 -32 -17 -3 4 -11 3 -17 -2 -18 -15 -186 -26 -186 -13 0
8 -8 9 -27 1 -32 -12 -203 -18 -209 -7 -3 4 -11 5 -18 2 -8 -3 -30 2 -51 10
l-37 16 16 -23 c37 -50 45 -80 34 -137 -8 -48 -42 -161 -63 -212 -14 -36 11
-17 26 20 l17 37 -5 -60 c-3 -33 -9 -64 -14 -69 -5 -6 -9 -24 -9 -40 0 -24
-15 -45 -79 -108 l-79 -78 -72 0 c-66 0 -74 2 -101 29 -22 22 -29 39 -29 67 0
34 8 46 98 133 l98 96 -21 59 -22 59 -11 -67 c-12 -76 -46 -135 -106 -185 -39
-32 -43 -33 -113 -29 -55 2 -79 9 -102 26 -46 34 -37 11 17 -44 26 -27 51 -57
55 -67 6 -16 2 -18 -45 -14 -38 3 -56 10 -69 26 l-18 22 -17 -26 c-9 -14 -22
-25 -29 -25 -8 0 -20 -6 -27 -14 -8 -7 -29 -21 -47 -30 -17 -9 -35 -25 -38
-34 -9 -23 -34 -41 -49 -35 -10 3 -9 12 2 38 13 31 4 59 -11 35 -3 -5 -21 -10
-40 -10 -18 0 -36 -6 -38 -12 -3 -8 -6 -5 -6 6 -1 12 -6 16 -17 12 -9 -3 -22
-6 -29 -6 -7 0 -20 -16 -29 -35 -15 -32 -15 -37 -1 -59 9 -14 27 -32 40 -40
22 -14 24 -14 28 2 4 13 5 12 6 -5 1 -23 45 -57 137 -106 57 -30 81 -36 46
-11 l-22 15 25 34 c34 44 61 49 130 25 72 -25 74 -25 41 1 -30 24 -33 41 -9
64 14 14 29 16 87 11 39 -3 80 -6 91 -6 22 0 95 -32 95 -41 0 -3 11 -4 25 -1
37 7 130 -45 173 -96 20 -24 57 -67 82 -95 25 -29 52 -67 59 -85 7 -17 20 -32
29 -32 8 0 35 -20 59 -45 33 -35 50 -45 74 -45 30 0 31 1 16 18 -10 10 -17 23
-17 28 0 5 -13 18 -29 29 -106 73 -256 219 -273 266 -9 24 -19 26 147 -32 61
-21 117 -47 125 -57 8 -10 31 -24 50 -30 37 -13 80 -49 80 -67 0 -6 13 -10 31
-9 75 5 107 -90 50 -147 -16 -16 -37 -29 -46 -29 -14 0 -12 -6 9 -31 28 -33
35 -62 12 -53 -8 3 -20 -3 -27 -13 -8 -10 -34 -26 -58 -36 l-44 -16 -29 31
c-26 28 -29 38 -25 75 2 24 3 43 2 43 -1 0 -21 -18 -43 -40 -51 -52 -91 -54
-133 -9 -16 17 -29 42 -29 55 0 17 -5 24 -15 22 -9 -2 -45 26 -80 62 -65 65
-65 65 -65 34 0 -16 -5 -35 -12 -42 -9 -9 -9 -18 0 -37 23 -50 15 -100 -21
-138 -41 -44 -94 -60 -156 -46 -69 15 -81 19 -81 30 0 6 4 8 9 5 19 -12 37 5
34 32 -3 15 0 47 5 70 l10 44 -22 -21 c-12 -12 -26 -18 -31 -14 -4 5 -5 3 -1
-4 10 -18 -33 -27 -60 -12 -13 7 -24 18 -24 24 0 15 -57 17 -82 4 -18 -10 -18
-8 -3 27 l15 36 -25 -16 c-14 -9 -25 -12 -25 -6 0 5 -5 10 -11 10 -6 0 -9 -9
-6 -20 4 -15 0 -20 -14 -20 -13 0 -19 7 -19 23 -1 19 -2 20 -13 7 -14 -17 -87
-16 -87 2 0 5 -7 7 -15 4 -9 -3 -18 0 -21 8 -3 7 -25 16 -50 20 -24 3 -66 18
-92 33 -39 22 -60 27 -123 28 -59 1 -83 5 -109 22 -20 13 -37 18 -41 12 -3 -5
-17 -1 -32 11 -21 17 -30 19 -47 10 -16 -8 -25 -7 -42 4 -16 11 -25 13 -35 4
-9 -7 -17 -7 -25 0 -24 19 -169 92 -184 92 -8 0 -28 14 -46 30 -17 17 -36 30
-42 30 -6 0 -33 18 -61 40 -27 22 -55 40 -62 40 -6 0 -13 3 -15 8 -6 13 -112
77 -168 101 -94 40 -109 44 -177 43 -13 0 -23 3 -23 7 0 4 -11 6 -24 6 -16 -1
-37 -17 -60 -46 -45 -55 -47 -58 -74 -95 -18 -27 -30 -32 -79 -38 -32 -4 -71
-13 -87 -21 -15 -8 -34 -15 -42 -15 -8 0 -11 -6 -8 -15 6 -14 0 -17 -38 -19
-7 0 -35 -8 -61 -18 -26 -10 -70 -18 -97 -18 -27 0 -52 -5 -55 -10 -4 -6 -23
-11 -43 -11 -88 -1 -152 -6 -158 -12 -4 -4 -22 -7 -40 -7 -18 0 -36 -5 -39
-10 -13 -21 -33 -8 -56 37 -22 43 -24 58 -23 172 1 106 6 141 28 216 30 99
101 219 142 237 13 6 24 15 24 19 0 4 10 5 22 1 13 -3 19 -1 15 5 -4 6 4 8 21
6 21 -4 24 -2 12 6 -13 9 -13 11 3 11 9 0 17 4 17 9 0 13 -28 22 -35 11 -3 -5
-15 -6 -28 -1 -13 5 -42 5 -68 0 -53 -12 -53 -12 -104 -4 -22 3 -67 7 -100 9
-56 3 -62 2 -72 -20 l-11 -25 86 4 c48 2 98 7 112 11 19 6 22 5 10 -3 -12 -8
-8 -11 20 -12 19 -1 38 -1 43 0 12 2 8 -16 -6 -27 -7 -6 -23 -9 -35 -5 -24 6
-82 -14 -82 -28 0 -5 -9 -18 -19 -28 -18 -18 -51 -73 -51 -84 0 -3 10 -5 23
-5 54 -2 81 -17 58 -31 -7 -5 -30 -6 -51 -4 -41 6 -56 -5 -34 -25 11 -10 14
-10 14 0 1 8 7 5 15 -6 8 -11 15 -14 15 -8 0 7 5 12 10 12 6 0 10 -7 10 -15 0
-18 -32 -34 -37 -19 -5 15 -60 5 -75 -13 -10 -13 -14 -12 -27 6 -12 16 -29 21
-69 22 -29 1 -55 6 -58 10 -2 5 -11 6 -19 2 -12 -4 -15 -25 -15 -92 l0 -86 55
0 c40 0 55 4 55 14 0 11 3 11 17 0 15 -13 15 -12 5 8 -7 12 -12 28 -12 35 0
15 39 -32 40 -48 0 -11 53 -28 77 -25 16 2 16 -2 0 -64 -13 -49 -14 -116 -2
-163 4 -18 3 -22 -7 -16 -10 6 -10 5 -2 -7 6 -8 11 -21 12 -29 0 -8 3 -33 8
-55 4 -22 8 -50 8 -62 1 -13 4 -23 9 -23 4 0 7 -9 7 -20 0 -12 -7 -20 -16 -20
-10 0 -14 6 -11 15 4 8 2 17 -4 20 -5 4 -7 10 -4 15 3 5 0 12 -6 16 -8 5 -9 3
-4 -6 6 -10 4 -12 -10 -6 -15 5 -16 4 -5 -9 7 -8 9 -15 5 -15 -4 0 -2 -7 5
-15 14 -16 16 -15 -57 -32 -24 -6 -45 -8 -48 -4 -4 3 -27 6 -53 6 -39 0 -47 3
-44 18 2 9 -2 17 -7 17 -7 0 -10 -114 -10 -331 l0 -332 22 22 c13 11 26 21 30
21 12 0 7 -28 -5 -33 -7 -3 11 -6 40 -6 46 -1 52 -4 52 -22 0 -16 -4 -19 -21
-14 -12 4 -27 8 -33 9 -6 1 -17 5 -24 10 -9 5 -20 2 -30 -8 -15 -15 -14 -16
12 -16 33 0 86 -29 86 -47 0 -19 2115 -19 2124 0 5 9 7 9 12 0 3 -7 10 -13 16
-13 11 0 38 25 38 37 0 4 26 9 59 11 43 2 60 -1 64 -11 4 -11 -7 -13 -54 -12
-44 1 -59 -1 -59 -12 0 -10 22 -13 95 -13 94 0 121 11 72 29 -38 15 66 26 116
12 23 -6 78 -10 122 -9 44 0 132 1 195 1 63 -1 129 0 145 0 17 1 72 0 124 -1
78 -2 92 -4 87 -17 -4 -10 1 -15 15 -15 11 0 17 4 14 10 -3 5 -1 10 4 10 6 0
11 -4 11 -10 0 -14 63 -13 95 2 18 8 32 8 48 1 30 -14 117 -16 117 -3 0 5 7
10 15 10 8 0 15 -4 15 -10 0 -6 32 -10 76 -10 61 0 80 4 90 18 13 16 14 16 8
0 -6 -16 85 -17 1600 -18 l1606 0 0 300 c0 325 3 306 -51 301 -15 -2 -35 3
-134 28 -22 6 -67 13 -100 17 -33 3 -80 14 -104 25 -24 11 -46 17 -48 15 -2
-2 -28 3 -56 10 -55 16 -127 27 -164 26 -13 0 -23 4 -23 8 0 4 -19 10 -42 14
-155 20 -273 43 -336 66 -18 7 -36 10 -39 7 -3 -4 -15 -1 -26 5 -11 6 -37 13
-56 15 -47 6 -156 42 -488 161 -78 28 -326 149 -478 232 -38 22 -99 53 -135
71 -36 17 -74 37 -85 42 -11 6 -39 9 -62 8 -34 -1 -43 2 -43 14 0 9 -4 13 -10
10 -9 -6 -49 11 -60 25 -3 3 -21 16 -40 27 -53 33 -85 71 -124 150 -47 93 -46
113 2 136 36 17 45 17 152 3 132 -17 170 -33 224 -93 29 -32 41 -40 47 -31 5
7 9 8 9 3 0 -6 9 -16 19 -22 18 -12 19 -11 5 15 -20 39 -17 106 6 152 23 46
24 52 8 48 -43 -8 -103 41 -79 65 6 6 11 23 11 39 0 15 6 31 13 35 6 4 19 21
27 38 12 23 25 31 54 36 32 5 39 3 43 -12 3 -11 14 -19 24 -19 11 0 19 -5 19
-10 0 -15 -39 -90 -61 -119 -35 -44 -19 -44 29 1 27 25 58 51 70 57 12 6 22
18 22 26 0 28 22 61 53 78 22 13 27 21 18 26 -10 7 -10 12 0 29 19 30 71 22
104 -15 23 -25 25 -34 19 -85 -4 -36 -2 -58 4 -58 5 0 9 -11 8 -24 0 -13 -4
-22 -8 -20 -4 3 -5 -8 -2 -24 4 -22 2 -31 -11 -35 -9 -4 -13 -11 -10 -17 3 -5
0 -10 -8 -10 -8 0 -17 -14 -21 -31 -5 -25 -9 -29 -20 -20 -11 9 -17 2 -32 -39
-21 -58 -44 -85 -44 -52 0 11 -7 26 -17 33 -15 13 -16 10 -11 -36 5 -54 -7
-75 -55 -100 -18 -9 -32 -9 -65 1 -50 14 -53 10 -9 -16 51 -32 72 -26 145 43
38 34 78 69 91 77 12 8 44 34 69 57 l47 42 95 -3 c65 -3 140 -16 235 -40 253
-63 339 -80 850 -166 226 -38 451 -76 500 -85 50 -8 100 -17 113 -19 l22 -3 0
459 c0 320 -3 457 -11 453 -5 -4 -22 -4 -37 0 -20 5 -23 8 -11 16 11 7 10 9
-6 9 -18 0 -18 2 5 21 l25 20 -25 -6 -25 -6 25 21 c16 14 19 20 8 16 -15 -5
-17 0 -11 42 3 26 9 49 13 52 12 9 18 37 10 49 -6 10 -12 10 -28 2 -35 -19
-34 -26 -17 96 5 38 4 57 -5 68 -18 22 -5 30 46 28 l44 -1 0 86 -1 87 -19 -35
-19 -35 6 35 c3 19 12 47 19 62 20 39 19 158 -1 158 -8 0 -15 4 -15 9 0 5 7
16 15 25 13 13 15 92 15 596 0 461 -3 582 -13 586 -8 3 -11 18 -9 45 6 56 -13
73 -32 28 -8 -19 -23 -45 -34 -59 -10 -14 -23 -36 -27 -50 -4 -14 -11 -27 -15
-30 -5 -3 -15 -27 -23 -55 -10 -33 -16 -42 -16 -25 0 14 11 52 25 85 14 33 30
78 36 100 6 22 15 45 20 52 5 7 5 14 -1 17 -5 3 -11 0 -14 -6 -2 -7 -7 -11 -9
-8 -3 3 -1 16 5 30 21 51 22 50 -89 50 l-104 0 4 -82z m-1454 -2096 c43 -7 45
-9 46 -42 1 -18 -5 -54 -12 -78 -8 -25 -14 -58 -14 -73 0 -37 -38 -37 -46 1
-16 77 -30 115 -55 150 -38 52 -37 62 4 55 17 -3 52 -9 77 -13z m-1519 -502
c30 -8 40 -18 53 -50 19 -49 20 -77 1 -155 -8 -33 -12 -69 -9 -81 13 -51 -29
-274 -51 -274 -3 0 -21 6 -40 14 -46 20 -86 22 -113 7 -19 -10 -26 -10 -39 0
-34 29 -40 99 -7 99 11 0 13 19 12 93 -2 100 15 312 27 340 6 13 20 17 69 17
33 0 77 -5 97 -10z m169 -81 c65 -37 87 -98 95 -257 7 -129 -4 -224 -26 -237
-5 -3 -19 1 -31 8 -13 8 -40 20 -60 26 -53 17 -63 34 -60 108 1 36 -3 74 -9
85 -7 14 -7 23 1 33 6 7 10 39 10 71 -2 131 3 162 24 176 15 10 13 11 56 -13z
m412 -428 c18 -6 67 -23 108 -37 41 -14 113 -36 160 -49 161 -44 287 -102 475
-218 167 -104 166 -103 164 -152 -3 -49 5 -44 -129 -70 -163 -32 -669 -11
-691 27 -22 38 -40 48 -114 63 -44 9 -102 19 -130 22 -27 3 -55 9 -60 13 -6 5
-32 10 -58 11 -42 2 -47 6 -57 32 -16 47 -13 55 35 101 54 53 58 83 15 128
-16 17 -30 34 -30 37 0 9 68 64 101 81 36 19 166 25 211 11z m-543 -210 c14
-10 44 -24 67 -30 59 -16 107 -74 81 -100 -16 -16 -54 -13 -61 5 -4 10 -14 14
-26 11 -13 -3 -20 0 -20 9 0 9 -11 14 -30 14 -32 0 -80 19 -80 31 0 11 33 79
38 79 2 0 16 -9 31 -19z m-1695 -404 c-3 -8 2 -20 11 -27 19 -16 20 -50 1 -50
-19 0 -25 -56 -9 -87 25 -48 17 -88 -24 -123 -34 -27 -44 -30 -91 -28 -30 2
-58 8 -62 13 -12 15 -15 73 -5 115 15 69 89 184 124 193 36 10 60 7 55 -6z
m300 -61 c55 -5 94 -29 114 -70 12 -24 12 -30 -3 -46 -15 -17 -15 -20 0 -44
21 -31 13 -110 -13 -140 -40 -43 -135 -70 -188 -52 -29 9 -40 65 -38 181 2
137 23 192 69 178 6 -1 32 -5 59 -7z m373 -44 c26 -16 33 -39 32 -92 -1 -19 2
-53 6 -76 6 -34 3 -47 -18 -80 -45 -71 -124 -122 -194 -123 -68 -2 -80 55 -54
253 13 101 25 118 92 132 60 13 102 9 136 -14z m423 -93 c53 -16 72 -43 64
-89 -15 -92 -72 -142 -176 -155 -79 -10 -90 7 -93 131 -1 65 2 100 11 108 17
17 143 20 194 5z"/>
<path d="M5335 4368 c-3 -7 -1 -53 3 -103 12 -147 -8 -239 -68 -311 -22 -27
-40 -56 -40 -66 0 -22 -24 -86 -58 -158 -22 -46 -28 -74 -33 -175 -9 -158 -33
-278 -69 -340 -34 -59 -86 -165 -95 -196 -7 -22 -7 -22 88 -16 110 6 121 10
105 36 -13 21 -3 56 13 45 6 -3 17 -22 25 -40 12 -29 19 -34 49 -34 19 0 35 4
35 8 0 4 -16 46 -35 92 -39 93 -39 98 -24 153 7 26 15 37 29 37 11 0 20 -4 20
-10 0 -5 4 -10 8 -10 11 0 32 45 32 68 0 9 9 32 21 51 19 32 21 33 40 15 23
-21 21 -22 45 44 10 29 23 57 29 61 19 14 114 33 134 26 15 -4 24 3 43 36 12
24 28 44 35 46 6 2 27 -10 47 -28 26 -22 40 -28 49 -21 6 5 30 12 52 15 22 3
57 9 77 15 29 8 42 6 60 -6 16 -12 52 -18 122 -20 l99 -4 -28 36 c-21 28 -34
36 -59 36 -17 0 -49 5 -70 11 -30 8 -49 8 -78 -2 -35 -11 -40 -10 -78 15 -36
23 -40 31 -40 66 0 72 55 117 90 75 22 -27 75 -29 125 -5 44 21 50 32 46 78
-4 42 45 107 123 166 85 64 94 75 75 87 -13 8 -1 28 37 64 6 5 34 40 63 77 41
53 49 69 37 74 -21 8 -118 -22 -149 -47 -15 -11 -27 -17 -27 -12 -1 4 -9 -1
-18 -13 -29 -35 -64 -49 -119 -49 -42 0 -59 -6 -95 -33 -24 -17 -71 -46 -105
-63 -61 -30 -66 -31 -177 -27 -135 4 -145 9 -220 114 -55 77 -131 154 -153
154 -7 0 -16 -6 -18 -12z"/>
<path d="M2197 4115 c-15 -91 7 -313 58 -580 3 -16 7 -46 9 -65 7 -64 30 -170
38 -170 4 0 10 -16 14 -35 16 -86 36 -1 21 90 -5 28 -12 75 -17 105 -4 30 -13
84 -19 120 -6 36 -15 110 -21 165 -15 136 -32 232 -63 355 l-14 55 -6 -40z"/>
<path d="M2080 3983 c1 -75 30 -370 45 -448 8 -44 20 -105 25 -135 5 -30 17
-82 26 -115 9 -33 20 -78 25 -100 5 -22 12 -50 14 -63 5 -19 10 -22 28 -16 43
13 46 20 28 87 -9 34 -19 67 -22 72 -4 6 -10 39 -14 75 -9 87 -62 319 -76 336
-6 7 -8 18 -4 24 4 6 2 17 -4 24 -7 8 -14 27 -16 42 -2 16 -9 59 -15 97 -5 37
-9 71 -8 75 3 16 -15 82 -23 82 -5 0 -9 -17 -9 -37z"/>
<path d="M1990 3725 c-8 -10 -11 -54 -8 -152 2 -116 6 -144 24 -178 27 -53 70
-146 77 -167 4 -10 -1 -24 -9 -33 -14 -13 -18 -12 -43 12 -15 16 -33 49 -40
76 -20 70 -42 77 -47 15 -3 -36 33 -148 47 -148 5 0 9 -6 9 -14 0 -15 76 -102
88 -100 4 1 13 -1 20 -4 8 -2 20 2 28 10 12 11 12 24 4 68 -6 30 -11 91 -11
135 0 53 -5 90 -15 109 -8 17 -25 91 -39 166 -23 131 -49 220 -65 220 -4 0
-13 -7 -20 -15z"/>
<path d="M3946 3011 c-23 -25 -45 -87 -46 -127 0 -40 -37 -160 -58 -192 -9
-14 -19 -48 -23 -76 -30 -215 -36 -229 -93 -240 -49 -9 -111 9 -135 41 -23 29
-28 57 -9 51 7 -3 27 11 45 31 32 36 35 60 12 101 -7 12 -8 11 -9 -6 0 -28
-42 -72 -86 -90 -46 -19 -119 -9 -349 50 -66 17 -94 20 -107 12 -9 -6 -15 -12
-12 -15 2 -3 -30 -13 -73 -22 -137 -30 -192 -47 -208 -62 -37 -38 -274 -24
-341 19 -13 9 -27 15 -29 12 -9 -9 37 -49 88 -75 48 -25 50 -28 25 -31 -15 -2
-40 4 -57 12 -38 20 -51 20 -51 1 0 -8 6 -15 13 -15 7 0 18 -9 24 -19 11 -18
10 -19 -20 -9 -18 5 -40 12 -49 15 -33 10 -18 -15 32 -53 60 -46 70 -72 41
-113 -27 -38 -26 -49 4 -63 14 -6 25 -15 25 -19 0 -13 -68 -39 -101 -39 -32 0
-39 -16 -11 -23 9 -3 2 -5 -15 -6 -49 -2 -40 -15 24 -35 53 -17 56 -19 38 -32
-10 -8 -28 -14 -39 -14 -19 0 -46 -18 -101 -69 -28 -25 -108 -51 -180 -58 -72
-6 -292 19 -400 47 -43 11 -92 20 -109 20 l-31 0 45 -30 c25 -16 54 -30 65
-30 11 0 40 -8 65 -16 35 -13 90 -17 250 -18 l205 -1 96 48 c53 26 106 47 118
47 12 0 30 9 41 20 23 23 44 17 37 -10 -6 -22 29 -40 77 -40 18 0 46 -5 63
-10 25 -9 29 -15 25 -40 -3 -20 -13 -33 -36 -44 -31 -16 -31 -16 41 -16 60 0
71 -3 67 -15 -4 -9 0 -15 7 -15 9 -1 8 -4 -3 -11 -10 -5 -18 -15 -18 -20 0 -6
4 -7 10 -4 6 4 9 -3 7 -15 -2 -19 10 -26 89 -53 71 -24 91 -34 86 -46 -5 -14
-4 -14 11 -1 46 40 163 159 185 190 14 19 43 53 65 76 38 41 38 41 31 102 -6
54 -9 62 -38 77 -18 10 -40 16 -49 14 -15 -4 -14 -8 8 -33 18 -21 23 -37 20
-60 -2 -17 -4 -36 -4 -42 -1 -6 -19 -29 -41 -51 -21 -22 -36 -43 -33 -47 3 -3
-1 -14 -10 -24 -10 -10 -15 -21 -12 -24 3 -3 -1 -11 -10 -18 -8 -7 -15 -18
-15 -24 0 -7 -15 -26 -33 -44 -28 -28 -40 -32 -85 -32 -64 0 -94 13 -116 51
-23 38 -14 92 23 151 15 24 39 66 55 93 30 56 88 102 138 111 59 10 60 11 32
51 -33 49 -31 48 -47 34 -11 -9 -17 -8 -26 3 -7 8 -19 12 -27 9 -10 -4 -14 2
-14 21 0 16 6 26 15 26 8 0 15 6 15 14 0 21 40 64 46 49 4 -8 14 -3 30 16 20
24 35 30 87 36 34 4 74 13 88 21 15 7 83 16 163 20 75 4 139 11 142 15 9 15
43 10 107 -17 34 -15 82 -30 107 -33 33 -4 44 -10 42 -22 -2 -13 9 -15 61 -15
53 1 70 -3 103 -26 21 -14 65 -39 96 -54 32 -16 61 -36 64 -46 3 -10 15 -18
27 -18 20 0 20 1 -5 28 -14 15 -28 35 -32 46 -4 13 -13 17 -29 12 -47 -11 -72
33 -31 55 13 7 33 32 45 56 11 23 25 43 30 43 5 0 37 -13 71 -30 43 -20 85
-52 132 -101 l69 -71 26 27 26 26 -50 45 c-59 54 -148 110 -190 120 -36 8 -62
33 -71 69 -6 26 -7 26 -25 -15 -11 -23 -19 -56 -19 -72 0 -19 -10 -40 -29 -59
-24 -24 -38 -29 -77 -29 -52 0 -109 29 -119 61 -6 18 -8 31 -17 91 -2 9 2 18
7 19 20 4 35 62 35 132 0 58 9 97 49 216 44 133 66 211 57 211 -1 0 -11 -9
-20 -19z m-1189 -710 c26 -22 42 -45 43 -58 0 -13 4 -23 8 -23 14 0 35 -106
28 -142 -11 -59 -37 -92 -108 -141 -74 -50 -101 -54 -114 -15 -3 12 -17 33
-30 47 -13 14 -24 35 -24 46 0 12 -11 43 -24 71 -34 69 -40 142 -16 182 33 54
102 85 165 74 17 -3 49 -21 72 -41z"/>
<path d="M573 2944 c-15 -15 -38 -33 -51 -42 -13 -8 -36 -41 -52 -71 -36 -71
-101 -149 -164 -197 -27 -21 -107 -96 -178 -167 -121 -123 -128 -131 -128
-169 l0 -41 52 49 c131 122 362 362 378 394 10 19 30 46 45 60 45 42 154 210
135 210 -5 0 -22 -12 -37 -26z"/>
<path d="M727 2417 c-19 -29 -62 -115 -97 -190 -74 -165 -91 -195 -152 -281
-27 -37 -48 -73 -48 -79 0 -9 20 -13 68 -13 41 0 88 -7 120 -19 48 -18 54 -18
68 -3 15 15 15 19 -5 44 -28 35 -27 42 6 46 18 2 29 10 31 22 3 16 -1 18 -28
14 -23 -4 -34 0 -41 14 -11 21 -9 26 53 95 21 24 38 48 38 54 0 6 -10 29 -22
50 -18 32 -20 43 -10 64 7 15 20 25 32 25 30 0 60 18 60 36 0 9 -10 30 -22 46
-18 27 -20 35 -10 62 29 80 6 87 -41 13z"/>
<path d="M163 2149 c-58 -65 -84 -86 -123 -104 l-40 -18 0 -89 c0 -48 3 -88 6
-88 11 0 116 113 140 151 13 21 28 40 33 43 5 4 13 21 17 38 3 18 13 43 21 55
16 24 10 43 -12 43 -7 0 -26 -14 -42 -31z"/>
<path d="M127 1605 c-13 -7 -39 -27 -56 -45 -38 -40 -50 -36 -15 5 25 29 17
48 -10 25 -10 -7 -16 -8 -21 0 -11 18 -25 11 -25 -12 0 -18 2 -20 10 -8 5 8
12 11 16 7 4 -4 -1 -16 -10 -26 -13 -14 -16 -28 -12 -48 l7 -28 105 -2 c88 -1
105 1 100 13 -3 8 1 14 10 14 11 0 13 6 8 22 -6 20 -5 21 10 9 18 -15 22 -1 4
17 -9 9 -8 12 6 12 9 0 15 4 12 9 -4 5 0 11 6 14 26 9 -8 25 -64 30 -36 3 -65
0 -81 -8z"/>
</g>
</svg>
