<?xml version="1.0" standalone="no"?>
<!DOCTYPE svg PUBLIC "-//W3C//DTD SVG 20010904//EN"
 "http://www.w3.org/TR/2001/REC-SVG-20010904/DTD/svg10.dtd">
<svg version="1.0" xmlns="http://www.w3.org/2000/svg"
 width="1600.000000pt" height="1600.000000pt" viewBox="0 0 1600.000000 1600.000000"
 preserveAspectRatio="xMidYMid meet">
<metadata>
Created by potrace 1.16, written by Peter Selinger 2001-2019
</metadata>
<g transform="translate(0.000000,1600.000000) scale(0.100000,-0.100000)"
fill="#000000" stroke="none">
<path d="M7803 11189 c-109 -94 -345 -324 -438 -429 -410 -458 -734 -995 -871
-1447 -16 -51 -32 -93 -36 -93 -5 0 -26 11 -48 25 -22 14 -42 25 -45 25 -2 0
-35 19 -72 41 -97 59 -355 187 -513 254 -144 60 -390 146 -401 139 -9 -5 -42
-116 -69 -229 -53 -225 -69 -541 -36 -740 20 -128 38 -187 28 -95 -12 109 -5
339 12 445 26 154 107 450 131 473 6 7 202 -95 320 -166 198 -120 427 -284
581 -417 l51 -43 -8 -59 c-73 -524 21 -1030 287 -1553 84 -166 113 -215 199
-345 185 -278 383 -515 636 -761 140 -136 309 -283 309 -269 0 4 -40 50 -88
103 -307 336 -590 749 -787 1147 -428 865 -432 1606 -13 2440 159 317 356 609
627 925 128 151 350 380 366 380 8 0 75 -60 151 -132 482 -466 861 -1001 1067
-1509 121 -298 165 -491 204 -904 l7 -70 8 55 c12 84 12 424 -1 520 -73 542
-303 1070 -697 1601 -180 242 -427 514 -642 707 -50 45 -94 82 -97 82 -2 0
-57 -46 -122 -101z"/>
<path d="M10300 9646 c-232 -86 -498 -208 -645 -297 -70 -42 -109 -71 -70 -52
139 67 266 117 464 183 172 57 327 97 337 87 2 -2 12 -56 21 -118 12 -86 17
-194 17 -444 1 -305 -1 -341 -23 -475 -14 -80 -24 -157 -24 -172 0 -19 -6 -28
-22 -32 -63 -16 -358 -158 -513 -248 -289 -166 -478 -311 -712 -547 -191 -192
-300 -324 -444 -541 -271 -408 -440 -850 -502 -1314 -16 -127 2 -105 -217
-267 -333 -247 -687 -388 -1102 -440 -131 -16 -517 -17 -675 -1 -591 60 -1074
221 -1487 495 -291 193 -565 465 -769 764 -43 62 -125 205 -120 210 13 13 323
63 493 79 66 6 72 5 83 -16 6 -12 48 -65 92 -118 469 -561 1116 -888 1988
-1004 155 -20 215 -23 525 -23 229 0 381 4 440 13 50 7 142 19 205 28 63 8
121 17 128 20 25 8 -224 282 -379 416 -189 163 -392 296 -634 414 -244 118
-448 192 -705 254 -361 88 -649 120 -1119 126 -301 4 -335 6 -348 22 -81 104
-215 326 -300 497 -152 303 -290 740 -348 1095 -8 52 -17 107 -20 122 -4 25
-1 27 43 34 58 9 489 -2 632 -16 569 -55 989 -159 1417 -351 188 -84 199 -75
28 23 -348 199 -656 313 -1130 417 -280 61 -721 104 -1015 99 l-175 -3 3 -80
c13 -405 105 -826 277 -1272 64 -163 194 -417 281 -547 18 -28 32 -51 31 -52
-2 -2 -84 -12 -182 -23 -216 -25 -457 -61 -468 -70 -32 -30 233 -481 406 -691
90 -110 339 -356 437 -434 353 -278 718 -454 1198 -577 423 -108 965 -139
1367 -78 385 59 805 240 1147 496 l67 50 167 7 c680 29 1490 225 2054 499 313
151 540 310 774 539 59 58 108 98 120 98 53 0 563 -114 579 -130 10 -9 -142
-238 -240 -360 -37 -47 -133 -150 -213 -230 -330 -330 -701 -551 -1164 -694
-572 -178 -1157 -210 -1885 -105 -102 14 -147 17 -154 10 -6 -6 -9 -11 -5 -11
3 0 59 -13 124 -29 291 -72 602 -118 870 -129 477 -21 953 44 1354 183 436
152 788 374 1120 705 154 153 269 293 381 462 87 132 196 345 183 358 -14 13
-395 125 -584 170 -96 24 -179 46 -184 51 -4 4 3 22 17 41 60 81 212 359 266
488 193 459 296 873 317 1268 l7 133 -344 -4 c-281 -3 -373 -8 -504 -26 -216
-29 -417 -71 -652 -137 -23 -6 -23 -6 -23 122 0 261 -47 605 -120 889 -40 155
-71 245 -83 245 -7 -1 -77 -25 -157 -54z m1587 -1309 c-3 -8 -8 -40 -12 -73
-4 -32 -20 -131 -36 -219 -86 -463 -235 -873 -446 -1232 -50 -85 -56 -92 -81
-88 -247 41 -420 56 -674 56 -297 0 -474 -22 -743 -90 -413 -104 -861 -349
-1250 -684 l-100 -86 -3 42 c-8 93 49 401 105 572 260 800 850 1361 1713 1628
249 77 545 136 819 162 209 20 231 21 490 23 183 2 222 0 218 -11z m-6692
-1797 c818 -47 1409 -253 1945 -678 103 -82 310 -291 310 -314 0 -16 -568 -4
-730 16 -612 75 -1125 249 -1530 518 -146 97 -255 185 -356 286 -132 132 -157
160 -151 169 9 14 297 16 512 3z m5705 -50 c180 -12 250 -20 250 -29 0 -18
-189 -218 -282 -300 -213 -186 -430 -320 -691 -428 -327 -134 -664 -212 -1056
-242 -168 -14 -601 -15 -601 -2 0 5 55 60 122 121 297 273 576 474 848 610
434 218 890 305 1410 270z"/>
</g>
</svg>
